<svg width="40" height="40" viewBox="0 0 40 40" fill="none" xmlns="http://www.w3.org/2000/svg">
<g clip-path="url(#clip0_457_352)">
<path d="M13.9344 1.31568C9.9378 2.70214 6.49112 5.3337 4.10064 8.82381C1.71016 12.3139 0.501892 16.4786 0.653301 20.7062C0.80471 24.9338 2.30782 29.0014 4.94185 32.3115C7.57587 35.6217 11.202 37.9999 15.2875 39.0969C18.5998 39.9516 22.0701 39.9891 25.4 39.2063C28.4167 38.5287 31.2056 37.0793 33.4938 35.0001C35.8753 32.7699 37.6039 29.9328 38.4938 26.7938C39.4607 23.3802 39.6328 19.7905 38.9969 16.3001H20.3969V24.0157H31.1688C30.9535 25.2463 30.4922 26.4208 29.8124 27.4689C29.1326 28.517 28.2484 29.4173 27.2125 30.1157C25.8973 30.9861 24.4145 31.5716 22.8594 31.8344C21.2999 32.1245 19.7002 32.1245 18.1407 31.8344C16.5599 31.508 15.0645 30.8556 13.75 29.9188C11.638 28.4238 10.0522 26.2998 9.21879 23.8501C8.37157 21.3544 8.37157 18.6489 9.21879 16.1532C9.812 14.4039 10.7926 12.8111 12.0875 11.4938C13.5694 9.95864 15.4455 8.8613 17.5099 8.32217C19.5744 7.78304 21.7474 7.82296 23.7907 8.43756C25.3869 8.92732 26.8466 9.78342 28.0532 10.9376C29.2678 9.72922 30.4803 8.51776 31.6907 7.30318C32.3157 6.65006 32.9969 6.02818 33.6125 5.35943C31.7705 3.64542 29.6084 2.31163 27.25 1.43443C22.9554 -0.124977 18.2562 -0.166884 13.9344 1.31568Z" fill="#B9B9B9"/>
<path d="M13.9344 1.31561C18.2559 -0.16796 22.955 -0.127156 27.25 1.43124C29.6088 2.3144 31.7699 3.65461 33.6094 5.37499C32.9844 6.04374 32.325 6.66874 31.6875 7.31874C30.475 8.52915 29.2636 9.7354 28.0532 10.9375C26.8466 9.78336 25.3869 8.92725 23.7907 8.43749C21.7481 7.82074 19.5751 7.77851 17.5101 8.31543C15.4451 8.85235 13.5679 9.94768 12.0844 11.4812C10.7895 12.7985 9.80888 14.3913 9.21567 16.1406L2.73755 11.125C5.05632 6.52674 9.07114 3.00944 13.9344 1.31561Z" fill="#E33629"/>
<path d="M1.01884 16.0938C1.36678 14.368 1.94486 12.6969 2.73759 11.125L9.21571 16.1531C8.36849 18.6488 8.36849 21.3543 9.21571 23.85C7.05738 25.5167 4.89801 27.1917 2.73759 28.875C0.753685 24.926 0.148628 20.4266 1.01884 16.0938Z" fill="#F8BD00"/>
<path d="M20.3969 16.2969H38.9969C39.6328 19.7873 39.4607 23.377 38.4938 26.7906C37.6039 29.9296 35.8753 32.7667 33.4938 34.9969C31.4031 33.3656 29.3031 31.7469 27.2125 30.1156C28.249 29.4165 29.1337 28.5153 29.8135 27.466C30.4933 26.4168 30.9543 25.2411 31.1688 24.0094H20.3969C20.3938 21.4406 20.3969 18.8687 20.3969 16.2969Z" fill="#587DBD"/>
<path d="M2.73438 28.875C4.89479 27.2083 7.05417 25.5333 9.2125 23.85C10.0475 26.3006 11.6356 28.4246 13.75 29.9187C15.0686 30.8511 16.5672 31.4982 18.15 31.8187C19.7095 32.1088 21.3092 32.1088 22.8687 31.8187C24.4238 31.5559 25.9067 30.9704 27.2219 30.1C29.3125 31.7312 31.4125 33.35 33.5031 34.9812C31.2153 37.0616 28.4263 38.5121 25.4094 39.1906C22.0794 39.9734 18.6091 39.9359 15.2969 39.0812C12.6772 38.3818 10.2302 37.1487 8.10938 35.4594C5.86477 33.6769 4.03136 31.431 2.73438 28.875Z" fill="#319F43"/>
</g>
<defs>
<clipPath id="clip0_457_352">
<rect width="40" height="40" fill="white"/>
</clipPath>
</defs>
</svg>
