<svg width="30" height="30" viewBox="0 0 30 30" fill="none" xmlns="http://www.w3.org/2000/svg">
<g clip-path="url(#clip0_145_295)">
<path d="M26.0085 5.36315C25.8923 5.24701 25.7545 5.15488 25.6027 5.09203C25.451 5.02918 25.2883 4.99683 25.1241 4.99683C24.9599 4.99683 24.7972 5.02918 24.6455 5.09203C24.4937 5.15488 24.3559 5.24701 24.2397 5.36315C24.1236 5.47928 24.0315 5.61716 23.9686 5.7689C23.9058 5.92064 23.8734 6.08328 23.8734 6.24752C23.8734 6.41176 23.9058 6.5744 23.9686 6.72614C24.0315 6.87788 24.1236 7.01576 24.2397 7.1319C26.3234 9.22052 27.4936 12.0504 27.4936 15.0006C27.4936 17.9509 26.3234 20.7808 24.2397 22.8694C24.0052 23.1039 23.8734 23.4221 23.8734 23.7538C23.8734 24.0855 24.0052 24.4036 24.2397 24.6381C24.4743 24.8727 24.7924 25.0045 25.1241 25.0045C25.4558 25.0045 25.7739 24.8727 26.0085 24.6381C28.5607 22.0801 29.994 18.6142 29.994 15.0006C29.994 11.3871 28.5607 7.92118 26.0085 5.36315Z" fill="#002E88"/>
<path d="M22.6253 9.1134C22.5091 8.99686 22.3712 8.90432 22.2193 8.84109C22.0674 8.77786 21.9045 8.74517 21.74 8.74487C21.5754 8.74458 21.4125 8.7767 21.2603 8.8394C21.1082 8.9021 20.9699 8.99414 20.8534 9.11028C20.7368 9.22642 20.6443 9.36437 20.5811 9.51627C20.5178 9.66817 20.4852 9.83103 20.4849 9.99557C20.4846 10.1601 20.5167 10.3231 20.5794 10.4752C20.6421 10.6273 20.7341 10.7656 20.8503 10.8822C21.9412 11.9748 22.5539 13.4556 22.5539 14.9996C22.5539 16.5436 21.9412 18.0245 20.8503 19.1171C20.7341 19.2337 20.6421 19.372 20.5794 19.5241C20.5167 19.6762 20.4846 19.8392 20.4849 20.0037C20.4852 20.1683 20.5178 20.3311 20.5811 20.483C20.6443 20.6349 20.7368 20.7729 20.8534 20.889C21.0888 21.1236 21.4077 21.255 21.74 21.2544C21.9045 21.2541 22.0674 21.2214 22.2193 21.1582C22.3712 21.095 22.5091 21.0024 22.6253 20.8859C24.1844 19.3237 25.0601 17.2068 25.0601 14.9996C25.0601 12.7925 24.1844 10.6756 22.6253 9.1134Z" fill="#002E88"/>
<path d="M17.275 0.250383C13.4741 0.964468 10.0934 3.1127 7.8325 6.25038H6.25C4.59321 6.25303 3.00503 6.91236 1.8335 8.08389C0.661974 9.25542 0.00264452 10.8436 0 12.5004L0 17.5004C0.00264452 19.1572 0.661974 20.7453 1.8335 21.9169C3.00503 23.0884 4.59321 23.7477 6.25 23.7504H7.8325C10.0938 26.8876 13.4744 29.0357 17.275 29.7504C17.3495 29.7649 17.4253 29.7721 17.5013 29.7716C17.8328 29.7716 18.1507 29.6399 18.3851 29.4055C18.6196 29.1711 18.7513 28.8532 18.7513 28.5216V1.48288C18.7517 1.2993 18.7117 1.11787 18.6342 0.951486C18.5566 0.785102 18.4433 0.637849 18.3024 0.520193C18.1614 0.402537 17.9963 0.317366 17.8188 0.270734C17.6412 0.224102 17.4556 0.217154 17.275 0.250383ZM16.25 26.9191C13.493 26.0402 11.1224 24.2394 9.53625 21.8191C9.42292 21.6448 9.2679 21.5015 9.08521 21.4022C8.90252 21.3028 8.69794 21.2507 8.49 21.2504H6.25C5.25544 21.2504 4.30161 20.8553 3.59835 20.152C2.89509 19.4488 2.5 18.4949 2.5 17.5004V12.5004C2.5 11.5058 2.89509 10.552 3.59835 9.84873C4.30161 9.14547 5.25544 8.75038 6.25 8.75038H8.5C8.70771 8.75036 8.91214 8.69857 9.09481 8.5997C9.27748 8.50084 9.43263 8.35801 9.54625 8.18413C11.1291 5.76443 13.4961 3.96281 16.25 3.08163V26.9191Z" fill="#002E88"/>
</g>
<defs>
<clipPath id="clip0_145_295">
<rect width="30" height="30" fill="white"/>
</clipPath>
</defs>
</svg>
